<svg xmlns="http://www.w3.org/2000/svg" xmlns:xlink="http://www.w3.org/1999/xlink" viewBox="0 0 474.09 851.48"><defs><style>.cls-1{fill:url(#Degradado_sin_nombre_2);}</style><linearGradient id="Degradado_sin_nombre_2" x1="237.05" y1="851.48" x2="237.05" gradientUnits="userSpaceOnUse"><stop offset="0" stop-color="#3fa9f5"/><stop offset="0.28" stop-color="#28b1cc"/><stop offset="0.6" stop-color="#12b9a4"/><stop offset="0.85" stop-color="#05bd8c"/><stop offset="1" stop-color="#00bf83"/></linearGradient></defs><title>Recurso 244SVG</title><g id="Capa_2" data-name="Capa 2"><g id="Capa_1-2" data-name="Capa 1"><path class="cls-1" d="M465,465.08a30,30,0,0,0-17.87-8.58h-9.89a24.35,24.35,0,0,0-2.44-.18H221.83A25.19,25.19,0,0,0,203,465.2a32.85,32.85,0,0,0-7.77,21.52c0,16.78,11.93,30.4,26.62,30.4H391L255.28,752,66.81,425.56,255.28,99.5l161,278.94c.31.61.67,1.15,1,1.76a29.32,29.32,0,0,0,4.86,6.39,30.4,30.4,0,0,0,43,0,31.28,31.28,0,0,0,5.11-6.81l.18-.25a30.82,30.82,0,0,0,3.59-14.41,30.42,30.42,0,0,0-3.34-13.86l-1.4-2.37a4.34,4.34,0,0,0-.43-.73L274.36,11a22,22,0,0,0-38.18,0L3,414.47a22.06,22.06,0,0,0,0,22.06L236.19,840.46a22.05,22.05,0,0,0,38.19,0l195.94-339.1.18-.24c0-.06.06-.06.06-.12a31.24,31.24,0,0,0,3.53-14.29,30.24,30.24,0,0,0-8.88-21.46C465.15,465.2,465,465.08,465,465.08Z"/></g></g></svg>